<svg width="14" height="14" viewBox="0 0 14 14" fill="none" xmlns="http://www.w3.org/2000/svg">
<path d="M11.1763 2.07455C9.70446 0.602673 7.30758 0.602673 5.83727 2.07455L1.75915 6.14955C1.73258 6.17611 1.71852 6.21205 1.71852 6.24955C1.71852 6.28705 1.73258 6.32299 1.75915 6.34955L2.33571 6.92611C2.36206 6.95235 2.39774 6.96708 2.43493 6.96708C2.47212 6.96708 2.50779 6.95235 2.53415 6.92611L6.61227 2.85111C7.11852 2.34486 7.79196 2.06674 8.50758 2.06674C9.22321 2.06674 9.89665 2.34486 10.4013 2.85111C10.9076 3.35736 11.1857 4.0308 11.1857 4.74486C11.1857 5.46049 10.9076 6.13236 10.4013 6.63861L6.24508 10.7933L5.57165 11.4667C4.94196 12.0964 3.91852 12.0964 3.28883 11.4667C2.98415 11.162 2.81696 10.7574 2.81696 10.3261C2.81696 9.89486 2.98415 9.49017 3.28883 9.18549L7.41227 5.06361C7.51696 4.96049 7.65446 4.90267 7.80133 4.90267H7.8029C7.94977 4.90267 8.08571 4.96049 8.18883 5.06361C8.29352 5.1683 8.34977 5.3058 8.34977 5.45267C8.34977 5.59799 8.29196 5.73549 8.18883 5.83861L4.81852 9.2058C4.79196 9.23236 4.7779 9.2683 4.7779 9.3058C4.7779 9.3433 4.79196 9.37924 4.81852 9.4058L5.39508 9.98236C5.42144 10.0086 5.45711 10.0233 5.4943 10.0233C5.53149 10.0233 5.56717 10.0086 5.59352 9.98236L8.96227 6.61361C9.27321 6.30267 9.44352 5.89017 9.44352 5.45111C9.44352 5.01205 9.27165 4.59799 8.96227 4.28861C8.32008 3.64642 7.27633 3.64799 6.63415 4.28861L6.23415 4.69017L2.51227 8.41049C2.25966 8.66161 2.05942 8.96039 1.92317 9.2895C1.78691 9.6186 1.71735 9.97148 1.71852 10.3277C1.71852 11.0511 2.00133 11.7308 2.51227 12.2417C3.04196 12.7699 3.73571 13.0339 4.42946 13.0339C5.12321 13.0339 5.81696 12.7699 6.34508 12.2417L11.1763 7.41361C11.8873 6.70111 12.281 5.75267 12.281 4.74486C12.2826 3.73549 11.8888 2.78705 11.1763 2.07455Z" fill="#003399"/>
</svg>
