<svg width="16" height="16" viewBox="0 0 16 16" fill="none" xmlns="http://www.w3.org/2000/svg">
<path d="M10.6668 8.59992V11.3999C10.6668 13.7333 9.7335 14.6666 7.40016 14.6666H4.60016C2.26683 14.6666 1.3335 13.7333 1.3335 11.3999V8.59992C1.3335 6.26659 2.26683 5.33325 4.60016 5.33325H7.40016C9.7335 5.33325 10.6668 6.26659 10.6668 8.59992Z" fill="#1171F9"/>
<path d="M11.3998 1.33325H8.59984C6.67914 1.33325 5.71152 1.97018 5.42907 3.49252C5.32748 4.04009 5.79484 4.49992 6.35175 4.49992H7.39984C10.1998 4.49992 11.4998 5.79992 11.4998 8.59992V9.64802C11.4998 10.2049 11.9597 10.6723 12.5072 10.5707C14.0296 10.2882 14.6665 9.32062 14.6665 7.39992V4.59992C14.6665 2.26659 13.7332 1.33325 11.3998 1.33325Z" fill="#1171F9"/>
</svg>
