<svg width="25" height="24" viewBox="0 0 25 24" fill="none" xmlns="http://www.w3.org/2000/svg">
<path fill-rule="evenodd" clip-rule="evenodd" d="M12.75 2C14.0632 1.99999 15.3636 2.25865 16.5768 2.76119C17.7901 3.26373 18.8925 4.00033 19.8211 4.92891C20.7497 5.8575 21.4863 6.95989 21.9888 8.17315C22.4914 9.3864 22.75 10.6868 22.75 12C22.75 17.5228 18.2729 22 12.75 22C7.22719 22 2.75002 17.5228 2.75002 12C2.75002 6.47717 7.22719 2 12.75 2ZM13.75 13H11.75C9.27431 13 7.14886 14.4994 6.23212 16.6398C7.68262 18.6737 10.0614 20 12.75 20C15.4386 20 17.8174 18.6737 19.2679 16.6396C18.3512 14.4994 16.2257 13 13.75 13ZM12.75 5C11.0932 5 9.75 6.34316 9.75 8C9.75 9.65684 11.0932 11 12.75 11C14.4068 11 15.75 9.65684 15.75 8C15.75 6.34316 14.4069 5 12.75 5Z" fill="#003399"/>
</svg>
